<?xml version="1.0" standalone="no"?>
<!DOCTYPE svg PUBLIC "-//W3C//DTD SVG 20010904//EN"
 "http://www.w3.org/TR/2001/REC-SVG-20010904/DTD/svg10.dtd">
<svg version="1.0" xmlns="http://www.w3.org/2000/svg"
 width="1432.000000pt" height="1434.000000pt" viewBox="0 0 1432.000000 1434.000000"
 preserveAspectRatio="xMidYMid meet">
<style>
  g { fill: #202124; }
  @media (prefers-color-scheme: dark) { g { fill: #F7F3E0; } }
</style>

<g transform="translate(0.000000,1434.000000) scale(0.100000,-0.100000)"
fill="#202124" stroke="none">
<path d="M5260 8900 c0 -713 3 -1080 10 -1080 6 0 10 -30 10 -70 0 -40 4 -70 10
-70 6 0 10 -18 10 -40 0 -22 5 -40 10 -40 6 0 10 -13 10 -30 0 -16 5 -30 10
-30 6 0 10 -13 10 -30 0 -16 5 -30 10 -30 6 0 10 -9 10 -20 0 -11 5 -20 10
-20 6 0 10 -9 10 -20 0 -11 5 -20 10 -20 6 0 10 -8 10 -18 0 -10 9 -24 20 -32
11 -8 20 -22 20 -32 0 -10 5 -18 10 -18 6 0 10 -7 10 -16 0 -9 14 -29 30 -44
16 -15 30 -33 30 -39 0 -15 166 -181 181 -181 6 0 24 -13 39 -30 15 -16 35
-30 44 -30 9 0 16 -4 16 -10 0 -5 8 -10 18 -10 10 0 24 -9 32 -20 8 -11 22
-20 32 -20 10 0 18 -4 18 -10 0 -5 9 -10 20 -10 11 0 20 -4 20 -10 0 -5 14
-10 30 -10 17 0 30 -4 30 -10 0 -5 9 -10 20 -10 11 0 20 -4 20 -10 0 -5 18
-10 40 -10 22 0 40 -4 40 -10 0 -5 18 -10 40 -10 22 0 40 -4 40 -10 0 -6 37
-10 90 -10 53 0 90 -4 90 -10 0 -5 23 -10 50 -10 28 0 50 5 50 10 0 6 37 10
90 10 53 0 90 4 90 10 0 6 23 10 50 10 28 0 50 5 50 10 0 6 14 10 30 10 17 0
30 5 30 10 0 6 14 10 30 10 17 0 30 5 30 10 0 6 9 10 20 10 11 0 20 5 20 10 0
6 9 10 20 10 11 0 20 5 20 10 0 6 8 10 18 10 10 0 24 9 32 20 8 11 21 20 30
20 9 0 22 9 30 20 8 11 20 20 27 20 16 0 163 145 163 161 0 6 14 24 30 39 17
15 30 34 30 42 0 7 9 20 20 28 11 8 20 22 20 32 0 10 5 18 10 18 6 0 10 9 10
20 0 11 5 20 10 20 6 0 10 9 10 20 0 11 5 20 10 20 6 0 10 9 10 20 0 11 5 20
10 20 6 0 10 8 10 18 0 10 9 24 20 32 11 8 20 22 20 32 0 10 5 18 10 18 6 0
10 8 10 18 0 10 9 24 20 32 11 8 20 21 20 30 0 9 9 22 20 30 11 8 20 21 20 28
0 8 13 27 30 42 16 15 30 33 30 40 0 6 22 33 50 60 27 27 50 54 50 59 0 15
247 261 261 261 6 0 28 18 49 40 21 22 44 40 50 40 7 0 25 14 40 30 15 17 34
30 42 30 7 0 20 9 28 20 8 11 21 20 30 20 9 0 22 9 30 20 8 11 22 20 32 20 10
0 18 5 18 10 0 6 8 10 18 10 10 0 24 9 32 20 8 11 22 20 32 20 10 0 18 5 18
10 0 6 9 10 20 10 11 0 20 5 20 10 0 6 9 10 20 10 11 0 20 5 20 10 0 6 9 10
20 10 11 0 20 5 20 10 0 6 9 10 20 10 11 0 20 5 20 10 0 6 14 10 30 10 17 0
30 5 30 10 0 6 9 10 20 10 11 0 20 5 20 10 0 6 14 10 30 10 17 0 30 5 30 10 0
6 14 10 30 10 17 0 30 5 30 10 0 6 14 10 30 10 17 0 30 5 30 10 0 6 14 10 30
10 17 0 30 5 30 10 0 6 18 10 40 10 22 0 40 5 40 10 0 6 18 10 40 10 22 0 40
5 40 10 0 6 27 10 60 10 33 0 60 4 60 10 0 6 40 10 100 10 60 0 100 4 100 10
0 6 53 10 140 10 87 0 140 -4 140 -10 0 -6 40 -10 100 -10 60 0 100 -4 100
-10 0 -6 27 -10 60 -10 33 0 60 -4 60 -10 0 -5 18 -10 40 -10 22 0 40 -4 40
-10 0 -5 18 -10 40 -10 22 0 40 -4 40 -10 0 -5 18 -10 40 -10 22 0 40 -4 40
-10 0 -5 14 -10 30 -10 17 0 30 -4 30 -10 0 -5 14 -10 30 -10 17 0 30 -4 30
-10 0 -5 9 -10 20 -10 11 0 20 -4 20 -10 0 -5 14 -10 30 -10 17 0 30 -4 30
-10 0 -5 9 -10 20 -10 11 0 20 -4 20 -10 0 -5 9 -10 20 -10 11 0 20 -4 20 -10
0 -5 9 -10 20 -10 11 0 20 -4 20 -10 0 -5 9 -10 20 -10 11 0 20 -4 20 -10 0
-5 9 -10 20 -10 11 0 20 -4 20 -10 0 -5 9 -10 20 -10 11 0 20 -4 20 -10 0 -5
9 -10 20 -10 11 0 20 -4 20 -10 0 -5 8 -10 18 -10 10 0 24 -9 32 -20 8 -11 21
-20 30 -20 9 0 22 -9 30 -20 8 -11 21 -20 30 -20 9 0 22 -9 30 -20 8 -11 21
-20 28 -20 7 0 31 -18 52 -40 21 -22 43 -40 49 -40 15 0 361 -347 361 -361 0
-6 14 -24 30 -39 17 -15 30 -34 30 -42 0 -7 9 -20 20 -28 11 -8 20 -21 20 -30
0 -9 9 -22 20 -30 11 -8 20 -21 20 -30 0 -9 9 -22 20 -30 11 -8 20 -22 20 -32
0 -10 5 -18 10 -18 6 0 10 -8 10 -18 0 -10 9 -24 20 -32 11 -8 20 -22 20 -32
0 -10 5 -18 10 -18 6 0 10 -9 10 -20 0 -11 5 -20 10 -20 6 0 10 -9 10 -20 0
-11 5 -20 10 -20 6 0 10 -9 10 -20 0 -11 5 -20 10 -20 6 0 10 -13 10 -30 0
-16 5 -30 10 -30 6 0 10 -9 10 -20 0 -11 5 -20 10 -20 6 0 10 -13 10 -30 0
-16 5 -30 10 -30 6 0 10 -9 10 -20 0 -11 5 -20 10 -20 6 0 10 -18 10 -40 0
-22 5 -40 10 -40 6 0 10 -13 10 -30 0 -16 5 -30 10 -30 6 0 10 -18 10 -40 0
-22 5 -40 10 -40 6 0 10 -18 10 -40 0 -22 5 -40 10 -40 6 0 10 -22 10 -50 0
-27 5 -50 10 -50 6 0 10 -33 10 -80 0 -47 4 -80 10 -80 6 0 10 -83 10 -230 0
-147 -4 -230 -10 -230 -6 0 -10 -33 -10 -80 0 -47 -4 -80 -10 -80 -5 0 -10
-22 -10 -50 0 -27 -4 -50 -10 -50 -5 0 -10 -18 -10 -40 0 -22 -4 -40 -10 -40
-5 0 -10 -18 -10 -40 0 -22 -4 -40 -10 -40 -5 0 -10 -13 -10 -30 0 -16 -4 -30
-10 -30 -5 0 -10 -18 -10 -40 0 -22 -4 -40 -10 -40 -5 0 -10 -9 -10 -20 0 -11
-4 -20 -10 -20 -5 0 -10 -13 -10 -30 0 -16 -4 -30 -10 -30 -5 0 -10 -9 -10
-20 0 -11 -4 -20 -10 -20 -5 0 -10 -13 -10 -30 0 -16 -4 -30 -10 -30 -5 0 -10
-9 -10 -20 0 -11 -4 -20 -10 -20 -5 0 -10 -9 -10 -20 0 -11 -4 -20 -10 -20 -5
0 -10 -9 -10 -20 0 -11 -4 -20 -10 -20 -5 0 -10 -8 -10 -18 0 -10 -9 -24 -20
-32 -11 -8 -20 -22 -20 -32 0 -10 -4 -18 -10 -18 -5 0 -10 -8 -10 -18 0 -10
-9 -24 -20 -32 -11 -8 -20 -21 -20 -30 0 -9 -9 -22 -20 -30 -11 -8 -20 -21
-20 -30 0 -9 -9 -22 -20 -30 -11 -8 -20 -21 -20 -28 0 -8 -13 -27 -30 -42 -16
-15 -30 -33 -30 -39 0 -14 -346 -361 -361 -361 -6 0 -28 -18 -49 -40 -21 -22
-45 -40 -52 -40 -7 0 -20 -9 -28 -20 -8 -11 -21 -20 -30 -20 -9 0 -22 -9 -30
-20 -8 -11 -21 -20 -30 -20 -9 0 -22 -9 -30 -20 -8 -11 -22 -20 -32 -20 -10 0
-18 -4 -18 -10 0 -5 -9 -10 -20 -10 -11 0 -20 -4 -20 -10 0 -5 -9 -10 -20 -10
-11 0 -20 -4 -20 -10 0 -5 -9 -10 -20 -10 -11 0 -20 -4 -20 -10 0 -5 -9 -10
-20 -10 -11 0 -20 -4 -20 -10 0 -5 -9 -10 -20 -10 -11 0 -20 -4 -20 -10 0 -5
-9 -10 -20 -10 -11 0 -20 -4 -20 -10 0 -5 -9 -10 -20 -10 -11 0 -20 -4 -20
-10 0 -5 -13 -10 -30 -10 -16 0 -30 -4 -30 -10 0 -5 -9 -10 -20 -10 -11 0 -20
-4 -20 -10 0 -5 -13 -10 -30 -10 -16 0 -30 -4 -30 -10 0 -5 -13 -10 -30 -10
-16 0 -30 -4 -30 -10 0 -5 -18 -10 -40 -10 -22 0 -40 -4 -40 -10 0 -5 -18 -10
-40 -10 -22 0 -40 -4 -40 -10 0 -5 -18 -10 -40 -10 -22 0 -40 -4 -40 -10 0 -6
-27 -10 -60 -10 -33 0 -60 -4 -60 -10 0 -6 -40 -10 -100 -10 -60 0 -100 -4
-100 -10 0 -6 -53 -10 -140 -10 -87 0 -140 4 -140 10 0 6 -40 10 -100 10 -60
0 -100 4 -100 10 0 6 -27 10 -60 10 -33 0 -60 4 -60 10 0 6 -22 10 -50 10 -27
0 -50 5 -50 10 0 6 -13 10 -30 10 -16 0 -30 5 -30 10 0 6 -18 10 -40 10 -22 0
-40 5 -40 10 0 6 -13 10 -30 10 -16 0 -30 5 -30 10 0 6 -13 10 -30 10 -16 0
-30 5 -30 10 0 6 -13 10 -30 10 -16 0 -30 5 -30 10 0 6 -9 10 -20 10 -11 0
-20 5 -20 10 0 6 -9 10 -20 10 -11 0 -20 5 -20 10 0 6 -13 10 -30 10 -16 0
-30 5 -30 10 0 6 -9 10 -20 10 -11 0 -20 5 -20 10 0 6 -9 10 -20 10 -11 0 -20
5 -20 10 0 6 -8 10 -18 10 -10 0 -24 9 -32 20 -8 11 -22 20 -32 20 -10 0 -18
5 -18 10 0 6 -8 10 -18 10 -10 0 -24 9 -32 20 -8 11 -21 20 -30 20 -9 0 -22 9
-30 20 -8 11 -21 20 -30 20 -9 0 -22 9 -30 20 -8 11 -21 20 -28 20 -7 0 -31
18 -52 40 -21 22 -43 40 -49 40 -14 0 -341 327 -341 341 0 6 -18 28 -40 49
-22 21 -40 45 -40 52 0 7 -9 20 -20 28 -11 8 -20 21 -20 30 0 9 -9 22 -20 30
-11 8 -20 21 -20 30 0 9 -9 22 -20 30 -11 8 -20 21 -20 30 0 9 -9 22 -20 30
-11 8 -20 22 -20 32 0 10 -4 18 -10 18 -5 0 -10 9 -10 20 0 11 -4 20 -10 20
-5 0 -10 9 -10 20 0 11 -4 20 -10 20 -5 0 -10 8 -10 18 0 10 -9 24 -20 32 -11
8 -20 21 -20 28 0 8 -14 27 -30 42 -17 15 -30 33 -30 39 0 15 -106 121 -121
121 -6 0 -24 14 -39 30 -15 17 -34 30 -42 30 -7 0 -20 9 -28 20 -8 11 -21 20
-30 20 -9 0 -22 9 -30 20 -8 11 -22 20 -32 20 -10 0 -18 5 -18 10 0 6 -9 10
-20 10 -11 0 -20 5 -20 10 0 6 -13 10 -30 10 -16 0 -30 5 -30 10 0 6 -13 10
-30 10 -16 0 -30 5 -30 10 0 6 -13 10 -30 10 -16 0 -30 5 -30 10 0 6 -18 10
-40 10 -22 0 -40 5 -40 10 0 6 -37 10 -90 10 -53 0 -90 4 -90 10 0 6 -27 10
-60 10 -33 0 -60 -4 -60 -10 0 -6 -33 -10 -80 -10 -47 0 -80 -4 -80 -10 0 -5
-22 -10 -50 -10 -27 0 -50 -4 -50 -10 0 -5 -13 -10 -30 -10 -16 0 -30 -4 -30
-10 0 -5 -9 -10 -20 -10 -11 0 -20 -4 -20 -10 0 -5 -13 -10 -30 -10 -16 0 -30
-4 -30 -10 0 -5 -9 -10 -20 -10 -11 0 -20 -4 -20 -10 0 -5 -8 -10 -18 -10 -10
0 -24 -9 -32 -20 -8 -11 -22 -20 -32 -20 -10 0 -18 -4 -18 -10 0 -5 -7 -10
-16 -10 -9 0 -29 -13 -44 -30 -15 -16 -33 -30 -39 -30 -15 0 -181 -166 -181
-181 0 -6 -14 -24 -30 -39 -17 -15 -30 -35 -30 -44 0 -9 -4 -16 -10 -16 -5 0
-10 -8 -10 -18 0 -10 -9 -24 -20 -32 -11 -8 -20 -22 -20 -32 0 -10 -4 -18 -10
-18 -5 0 -10 -9 -10 -20 0 -11 -4 -20 -10 -20 -5 0 -10 -9 -10 -20 0 -11 -4
-20 -10 -20 -5 0 -10 -13 -10 -30 0 -16 -4 -30 -10 -30 -5 0 -10 -13 -10 -30
0 -16 -4 -30 -10 -30 -5 0 -10 -18 -10 -40 0 -22 -4 -40 -10 -40 -6 0 -10 -30
-10 -70 0 -40 -4 -70 -10 -70 -7 0 -10 -143 -10 -410 l0 -410 -2550 0 -2550 0
0 3030 0 3030 2550 0 2550 0 0 -1080z m8260 -1950 c0 -5 18 -10 40 -10 22 0
40 -4 40 -10 0 -5 14 -10 30 -10 17 0 30 -4 30 -10 0 -5 13 -10 28 -10 16 0
34 -8 42 -20 8 -11 22 -20 32 -20 10 0 18 -4 18 -10 0 -5 7 -10 15 -10 19 0
185 -164 185 -183 0 -7 9 -19 20 -27 11 -8 20 -22 20 -32 0 -10 5 -18 10 -18
6 0 10 -9 10 -20 0 -11 5 -20 10 -20 6 0 10 -13 10 -30 0 -16 5 -30 10 -30 6
0 10 -18 10 -40 0 -22 5 -40 10 -40 6 0 10 -53 10 -140 0 -87 -4 -140 -10
-140 -5 0 -10 -18 -10 -40 0 -22 -4 -40 -10 -40 -5 0 -10 -13 -10 -30 0 -16
-4 -30 -10 -30 -5 0 -10 -9 -10 -20 0 -11 -4 -20 -10 -20 -5 0 -10 -8 -10 -18
0 -10 -9 -24 -20 -32 -11 -8 -20 -20 -20 -27 0 -17 -146 -163 -163 -163 -7 0
-19 -9 -27 -20 -8 -11 -22 -20 -32 -20 -10 0 -18 -4 -18 -10 0 -5 -9 -10 -20
-10 -11 0 -20 -4 -20 -10 0 -5 -9 -10 -20 -10 -11 0 -20 -4 -20 -10 0 -5 -13
-10 -30 -10 -16 0 -30 -4 -30 -10 0 -5 -18 -10 -40 -10 -22 0 -40 -4 -40 -10
0 -6 -43 -10 -110 -10 -67 0 -110 4 -110 10 0 6 -18 10 -40 10 -22 0 -40 5
-40 10 0 6 -13 10 -30 10 -16 0 -30 5 -30 10 0 6 -13 10 -30 10 -16 0 -30 5
-30 10 0 6 -8 10 -18 10 -10 0 -24 9 -32 20 -8 11 -21 20 -28 20 -7 0 -31 18
-52 40 -21 22 -46 40 -54 40 -9 0 -16 7 -16 16 0 8 -18 33 -40 54 -22 21 -40
46 -40 54 0 9 -4 16 -10 16 -5 0 -10 9 -10 20 0 11 -4 20 -10 20 -5 0 -10 9
-10 20 0 11 -4 20 -10 20 -5 0 -10 9 -10 20 0 11 -4 20 -10 20 -5 0 -10 14
-10 30 0 17 -4 30 -10 30 -6 0 -10 27 -10 60 0 33 -4 60 -10 60 -6 0 -10 27
-10 60 0 33 4 60 10 60 6 0 10 27 10 60 0 33 4 60 10 60 6 0 10 14 10 30 0 17
5 30 10 30 6 0 10 9 10 20 0 11 5 20 10 20 6 0 10 13 10 28 0 16 8 34 20 42
11 8 20 21 20 28 0 8 14 27 30 42 17 15 30 33 30 39 0 15 46 61 61 61 6 0 24
14 39 30 15 17 34 30 42 30 7 0 20 9 28 20 8 11 22 20 32 20 10 0 18 5 18 10
0 6 9 10 20 10 11 0 20 5 20 10 0 6 14 10 30 10 17 0 30 5 30 10 0 6 23 10 50
10 28 0 50 5 50 10 0 6 43 10 110 10 67 0 110 -4 110 -10z"/>
</g>
</svg>
